<?xml version="1.0" encoding="UTF-8"?>
<svg xmlns="http://www.w3.org/2000/svg" width="280" height="280" viewBox="0 0 225 225">
  <defs>
    <filter id="inkBleed" x="-15%" y="-15%" width="130%" height="130%">
      <feGaussianBlur stdDeviation="0.35" result="b"/>
      <feMerge>
        <feMergeNode in="b"/>
        <feMergeNode in="SourceGraphic"/>
      </feMerge>
    </filter>
  </defs>
  <!-- Blog: base ink texture, scaled down to 1/2 of previous scale -->
  <g transform="translate(-15,-10) scale(0.61)">
    <path d="M 136.00 200.50 L 134.00 198.50 L 144.50 195.00 L 137.00 196.50 L 136.00 194.50 L 138.00 195.50 L 139.00 193.50 L 141.00 194.50 L 151.00 189.50 L 154.00 190.50 L 156.00 186.50 L 159.50 186.00 L 156.00 189.50 L 163.00 185.50 L 171.50 178.00 L 168.00 180.50 L 165.50 179.00 L 173.50 174.00 L 172.50 173.00 L 180.50 166.00 L 179.50 165.00 L 182.00 161.50 L 185.50 161.00 L 182.50 165.00 L 184.50 165.00 L 187.50 160.00 L 185.50 159.00 L 190.50 155.00 L 188.00 157.50 L 187.50 155.00 L 192.00 143.50 L 188.50 152.00 L 185.50 153.00 L 186.50 155.00 L 183.50 156.00 L 178.50 165.00 L 164.50 178.00 L 164.00 180.50 L 161.00 180.50 L 144.00 191.50 L 124.00 196.50 L 116.00 195.50 L 113.00 197.50 L 103.00 194.50 L 100.00 195.50 L 93.00 192.50 L 95.00 191.50 L 102.00 193.50 L 103.50 192.00 L 99.50 191.00 L 101.50 190.00 L 101.00 188.50 L 95.00 188.50 L 87.00 183.50 L 84.00 183.50 L 83.00 185.50 L 81.00 181.50 L 72.00 176.50 L 70.50 177.00 L 72.00 179.50 L 69.00 178.50 L 57.50 168.00 L 55.50 162.00 L 61.00 163.50 L 63.50 166.00 L 62.50 167.00 L 64.00 166.50 L 67.00 170.50 L 68.00 169.50 L 73.00 175.50 L 82.00 179.50 L 83.00 178.50 L 91.00 184.50 L 95.00 183.50 L 97.00 185.50 L 98.00 183.50 L 99.00 186.50 L 101.50 186.00 L 100.00 182.50 L 104.00 185.50 L 105.00 183.50 L 110.00 186.50 L 105.50 183.00 L 108.50 183.00 L 107.00 180.50 L 116.00 181.50 L 122.00 184.50 L 123.00 181.50 L 131.00 179.50 L 140.00 180.50 L 142.50 179.00 L 138.50 178.00 L 141.50 177.00 L 140.00 175.50 L 145.00 175.50 L 161.50 165.00 L 160.50 164.00 L 163.00 160.50 L 164.50 161.00 L 165.50 156.00 L 172.50 153.00 L 169.50 150.00 L 173.50 146.00 L 176.50 139.00 L 175.50 138.00 L 178.50 135.00 L 178.50 127.00 L 181.50 126.00 L 180.50 121.00 L 179.00 123.50 L 178.50 120.00 L 182.50 119.00 L 180.50 117.00 L 182.50 113.00 L 180.50 112.00 L 182.50 110.00 L 179.50 111.00 L 181.50 108.00 L 179.50 107.00 L 181.50 102.00 L 180.00 101.50 L 179.00 103.50 L 177.50 100.00 L 179.50 99.00 L 177.50 87.00 L 169.50 72.00 L 155.50 58.00 L 158.00 56.50 L 153.00 53.50 L 155.50 57.00 L 154.00 57.50 L 148.00 53.50 L 147.00 50.50 L 147.00 52.50 L 143.00 51.50 L 140.00 46.50 L 135.00 45.50 L 132.00 42.50 L 130.50 45.00 L 133.00 44.50 L 135.00 47.50 L 117.00 43.50 L 93.00 45.50 L 97.00 48.50 L 86.00 47.50 L 76.00 53.50 L 73.50 56.00 L 75.00 57.50 L 70.50 58.00 L 72.50 59.00 L 69.50 62.00 L 72.50 62.00 L 64.50 70.00 L 57.50 82.00 L 55.50 91.00 L 58.00 94.50 L 60.50 94.00 L 57.50 101.00 L 58.50 105.00 L 53.50 119.00 L 47.00 126.50 L 40.00 127.50 L 41.50 126.00 L 39.00 124.50 L 31.00 123.50 L 32.50 122.00 L 27.00 118.50 L 25.00 119.50 L 18.50 109.00 L 17.50 100.00 L 20.00 98.50 L 22.50 110.00 L 27.50 112.00 L 22.50 105.00 L 22.50 92.00 L 24.50 96.00 L 23.50 87.00 L 26.50 79.00 L 25.50 77.00 L 29.00 72.50 L 30.50 74.00 L 35.50 64.00 L 39.50 62.00 L 38.50 60.00 L 43.50 53.00 L 45.00 51.50 L 47.00 52.50 L 52.50 46.00 L 51.50 45.00 L 65.00 34.50 L 67.00 35.50 L 66.50 34.00 L 70.00 31.50 L 75.00 29.50 L 77.00 30.50 L 76.50 29.00 L 79.00 27.50 L 94.00 23.50 L 91.00 21.50 L 109.00 19.50 L 125.00 20.50 L 143.00 25.50 L 167.00 38.50 L 188.50 62.00 L 198.50 82.00 L 198.50 87.00 L 200.50 88.00 L 199.50 90.00 L 201.50 91.00 L 204.50 122.00 L 201.50 137.00 L 198.50 140.00 L 199.50 143.00 L 197.50 143.00 L 193.50 151.00 L 195.50 154.00 L 193.00 153.50 L 189.50 159.00 L 190.50 163.00 L 187.50 164.00 L 181.50 172.00 L 182.50 173.00 L 180.00 173.50 L 174.00 181.50 L 169.00 182.50 L 156.00 192.50 L 136.00 200.50 Z M 35.50 80.00 L 35.50 76.00 L 38.50 70.00 L 40.50 71.00 L 42.50 67.00 L 40.50 66.00 L 45.50 63.00 L 44.50 60.00 L 47.50 56.00 L 66.00 39.50 L 70.50 39.00 L 56.00 49.50 L 52.00 55.50 L 66.00 42.50 L 81.00 35.50 L 79.00 34.50 L 70.50 38.00 L 75.00 34.50 L 85.00 31.50 L 84.00 29.50 L 62.00 40.50 L 45.50 56.00 L 36.50 70.00 L 34.50 76.00 L 35.50 80.00 Z" fill="#000" fill-rule="evenodd" filter="url(#inkBleed)"/>
  </g>
</svg>